<?xml version="1.0" standalone="no"?>
<!DOCTYPE svg PUBLIC "-//W3C//DTD SVG 20010904//EN"
 "http://www.w3.org/TR/2001/REC-SVG-20010904/DTD/svg10.dtd">
<svg version="1.0" xmlns="http://www.w3.org/2000/svg"
 width="300.000000pt" height="300.000000pt" viewBox="0 0 300.000000 300.000000"
 preserveAspectRatio="xMidYMid meet">
<metadata>
Created by potrace 1.10, written by Peter Selinger 2001-2011
</metadata>
<g transform="translate(0.000000,300.000000) scale(0.050000,-0.050000)"
fill="#000000" stroke="none">
<path d="M3225 5734 c53 -44 54 -49 36 -164 -10 -66 -21 -174 -25 -240 l-6
-120 130 -12 c72 -6 189 -18 260 -26 l130 -14 -58 49 c-39 33 -54 60 -45 83
30 78 -113 161 -157 90 -41 -66 -80 -17 -73 90 7 111 60 158 90 80 29 -76 168
-37 176 49 12 118 -9 132 -239 158 -281 32 -286 31 -219 -23z"/>
<path d="M2296 5643 c-201 -61 -221 -74 -139 -92 62 -14 81 -56 166 -376 30
-113 4 -111 292 -24 282 85 290 91 157 113 -31 5 -51 47 -92 194 -76 266 -90
273 -384 185z m220 -220 c29 -89 22 -143 -20 -143 -35 0 -99 215 -68 228 42
17 60 -1 88 -85z"/>
<path d="M3880 5666 c0 -7 17 -32 38 -55 37 -40 36 -44 -51 -259 -49 -120 -82
-224 -73 -232 25 -23 454 -179 464 -169 4 5 -6 25 -23 44 -17 19 -35 62 -38
95 -6 52 -21 65 -111 97 -99 35 -103 39 -77 80 33 52 138 314 128 320 -67 42
-257 101 -257 79z"/>
<path d="M1696 5364 c-208 -122 -229 -144 -137 -144 41 0 62 -12 71 -40 16
-50 32 -50 97 1 29 23 53 33 53 22 0 -17 162 -292 188 -317 13 -14 132 72 132
95 0 10 -40 80 -90 157 -88 136 -107 182 -74 182 68 0 86 52 36 106 -63 68
-48 72 -276 -62z"/>
<path d="M4540 5380 c0 -13 9 -39 19 -58 15 -28 -8 -72 -110 -213 -164 -225
-164 -222 43 -370 231 -164 251 -170 205 -71 -20 45 -11 66 100 221 156 218
156 217 -41 361 -207 152 -216 157 -216 130z m158 -298 c23 -15 16 -34 -37
-101 -57 -71 -62 -86 -38 -116 17 -21 4 -17 -38 12 l-65 46 63 88 c68 95 72
98 115 71z"/>
<path d="M2802 5069 c-153 -33 -204 -54 -92 -37 44 6 150 19 236 27 86 9 161
22 168 29 22 22 -180 10 -312 -19z"/>
<path d="M1141 4911 c-169 -170 -193 -214 -93 -168 52 23 60 18 218 -139 187
-186 190 -187 253 -102 l46 63 -56 44 c-37 30 -52 56 -43 78 18 46 45 41 90
-17 53 -66 62 -64 160 36 97 99 105 121 32 93 -38 -14 -62 -13 -85 6 -18 14
-44 34 -58 45 -14 11 -72 67 -129 125 -133 136 -137 135 -335 -64z m264 -51
c12 0 5 -18 -15 -40 -41 -45 -48 -47 -89 -21 -37 24 11 88 54 72 15 -6 38 -11
50 -11z"/>
<path d="M2950 4998 c-341 -28 -717 -174 -1005 -390 -135 -101 -174 -148 -124
-148 11 0 85 49 165 108 701 524 1629 516 2339 -21 115 -86 155 -104 155 -68
0 22 -185 165 -330 255 -208 130 -539 239 -780 257 -77 6 -162 13 -190 16 -27
3 -131 -1 -230 -9z"/>
<path d="M2368 4943 c-180 -71 -347 -166 -493 -280 -167 -129 -125 -127 48 3
153 114 375 234 547 295 55 20 87 36 70 37 -16 0 -94 -25 -172 -55z"/>
<path d="M5089 4908 c9 -36 2 -65 -21 -90 -32 -35 -32 -41 -1 -75 46 -50 49
-46 -107 -172 -155 -125 -163 -143 -90 -211 l49 -46 150 124 c144 119 151 122
175 83 34 -55 65 -52 115 12 51 65 51 70 -1 129 -23 26 -87 104 -143 173 -110
134 -147 156 -126 73z"/>
<path d="M2782 4869 c-340 -74 -704 -251 -862 -419 -41 -43 -49 -45 -89 -19
-42 28 -231 92 -231 78 0 -3 11 -18 25 -33 69 -76 68 -96 -15 -185 -198 -213
-483 -846 -412 -917 29 -29 28 -29 78 162 84 321 464 946 464 763 0 -11 -39
-68 -87 -126 -224 -276 -426 -802 -342 -894 44 -49 69 -33 69 47 1 96 25 122
67 72 42 -49 88 -43 127 16 41 61 -31 140 -96 105 -65 -35 -65 -15 1 154 65
168 100 234 101 192 1 -73 100 -122 149 -74 60 61 -15 169 -89 129 -59 -31
-50 -4 45 135 79 117 86 123 105 82 14 -32 12 -46 -5 -52 -29 -10 -34 -65 -6
-65 56 0 45 -180 -16 -275 -205 -319 -221 -426 -148 -997 52 -413 129 -561
358 -688 73 -39 74 -41 17 -29 -81 17 -185 83 -225 143 -18 28 -57 75 -87 105
-47 46 -56 75 -66 212 -7 88 -26 227 -43 309 -18 83 -34 176 -37 209 -2 32
-16 62 -29 67 -13 4 -62 47 -107 96 -45 48 -92 88 -103 88 -11 0 -41 20 -67
43 -52 50 -61 28 -15 -38 34 -49 41 -148 31 -425 -9 -257 -39 -122 -41 184 -1
224 -27 300 -48 143 -38 -274 38 -735 156 -947 56 -100 58 13 3 150 -65 162
-66 231 -3 109 27 -51 62 -103 78 -117 17 -14 26 -40 20 -58 -8 -24 -6 -27 7
-9 14 19 45 -2 121 -82 57 -59 131 -119 165 -133 38 -16 58 -36 52 -52 -13
-33 28 -61 46 -32 9 15 44 11 112 -12 l100 -34 -109 -6 c-94 -6 -120 2 -195
54 -98 70 -114 47 -28 -40 43 -42 78 -58 130 -58 89 0 94 -31 9 -48 -123 -24
-172 -14 -237 51 -67 67 -110 154 -88 175 7 6 17 1 22 -12 21 -58 129 -186
158 -186 24 0 16 19 -30 71 -55 62 -72 103 -65 153 3 20 -125 116 -155 116
-40 0 -106 -174 -92 -241 33 -149 167 -226 341 -198 138 23 194 23 179 -1 -7
-11 -30 -20 -51 -20 -44 0 -50 -21 -15 -56 34 -34 50 -30 62 16 7 27 27 40 61
40 49 0 102 37 117 81 4 12 65 26 136 31 l130 9 -100 -37 c-156 -56 -310 -129
-310 -148 0 -33 75 -14 161 40 49 31 99 62 112 70 16 9 20 1 13 -26 -12 -45
89 -100 183 -100 66 0 251 -260 251 -353 0 -15 -75 11 -226 79 l-137 61 63 26
c71 30 80 114 16 154 -49 31 -122 -39 -107 -101 16 -63 -3 -58 -126 35 -87 66
-120 80 -180 75 l-73 -6 126 -100 c159 -126 390 -253 584 -323 241 -86 278
-136 48 -65 -305 94 -542 233 -771 453 -180 173 -262 171 -90 -2 254 -253 608
-454 944 -535 179 -43 425 -202 356 -231 -47 -19 -5 -88 50 -82 l53 5 -7 -155
c-6 -128 -2 -157 25 -167 65 -25 92 29 92 183 0 136 3 147 45 153 30 4 45 20
45 46 0 50 -120 66 -179 23 -35 -26 -48 -19 -153 85 -64 61 -168 162 -233 222
-91 85 -127 138 -163 235 -50 132 -201 353 -246 357 -14 1 -46 3 -71 5 -61 4
-57 39 7 55 42 11 49 21 37 56 -16 46 -31 417 -15 377 5 -14 19 -25 30 -25 11
0 6 23 -12 50 -49 74 -22 61 40 -21 55 -71 54 -115 -2 -69 -38 32 -39 2 -1
-53 16 -23 24 -47 17 -54 -7 -7 -2 -13 10 -13 13 0 18 -13 11 -29 -12 -32 -47
-33 -74 -1 -9 11 -11 3 -3 -20 7 -22 18 -65 24 -95 6 -30 23 -64 38 -77 36
-29 35 -2 -2 62 -34 59 -38 87 -10 70 11 -7 20 -1 21 14 0 14 13 4 28 -24 20
-36 21 -54 5 -64 -13 -8 -15 -21 -6 -30 10 -9 22 -4 27 10 7 19 16 17 35 -10
19 -26 21 -43 5 -61 -27 -34 -1 -59 29 -29 18 18 34 14 70 -20 25 -23 46 -37
46 -30 0 24 -86 93 -103 82 -9 -5 -11 4 -5 20 15 40 136 -48 178 -128 27 -52
74 -65 125 -33 32 20 31 -8 -2 -51 -20 -26 -32 -29 -50 -11 -17 17 -23 17 -23
0 0 -12 9 -28 19 -34 11 -7 14 -25 8 -42 -6 -16 -19 -24 -29 -18 -10 7 -13 20
-7 30 6 11 3 19 -7 19 -18 0 -50 72 -47 103 1 7 -11 18 -28 24 -20 8 -13 -20
25 -93 30 -57 52 -115 49 -127 -2 -13 5 -30 16 -37 32 -19 25 -50 -10 -50 -17
0 -26 -9 -18 -21 9 -14 21 -14 39 1 21 17 32 13 49 -19 15 -27 16 -41 2 -41
-12 0 -21 -9 -21 -20 0 -31 34 -23 48 11 6 17 -2 52 -19 78 -21 32 -24 52 -10
60 18 12 29 -12 24 -52 -2 -19 110 -101 225 -165 l97 -54 48 44 c56 54 45 80
-13 28 -38 -35 -43 -35 -118 -1 -125 57 -262 231 -181 231 12 0 15 10 7 23
-10 16 -21 13 -39 -11 -22 -30 -25 -30 -37 -1 -17 45 -16 49 18 49 17 0 30 11
30 24 0 14 14 5 31 -19 17 -25 25 -63 19 -89 -9 -34 1 -53 34 -74 45 -27 45
-27 11 12 -59 66 -39 69 48 6 103 -74 116 -74 186 -2 80 84 144 42 84 -54 -13
-21 -22 -19 -42 8 -16 22 -30 26 -38 13 -7 -12 1 -36 19 -54 39 -40 64 -22
152 104 60 88 90 101 68 31 -15 -46 -260 -306 -289 -306 -20 0 -210 118 -259
161 -15 13 -31 18 -37 13 -24 -24 295 -217 322 -195 20 17 29 14 39 -11 7 -19
19 -28 25 -21 7 6 3 24 -10 39 -17 21 0 48 75 122 60 59 102 87 111 74 7 -12
24 -22 37 -21 13 0 7 13 -14 29 -32 24 -34 34 -12 60 21 25 30 26 42 7 9 -14
23 -19 31 -10 9 8 4 23 -11 32 -23 14 -22 25 5 63 27 38 33 40 33 12 0 -18 9
-34 20 -34 32 0 23 31 -20 70 -39 35 -40 35 -40 -12 -1 -37 -5 -41 -19 -19
-10 16 -11 42 -2 58 10 18 2 54 -22 93 -73 125 -139 353 -112 387 17 21 18 26
1 17 -13 -8 -30 -4 -38 9 -8 13 -6 18 4 13 10 -6 36 -5 57 3 31 11 51 -1 91
-55 l50 -70 -55 -56 c-61 -61 -60 -64 33 -232 l57 -104 50 74 c27 41 68 94 90
119 39 42 39 47 8 81 -42 47 -43 77 -2 43 25 -21 35 -20 55 1 19 21 17 23 -12
13 -22 -8 -40 -1 -47 18 -7 17 -25 26 -40 20 -64 -24 -350 533 -300 582 6 7
-2 25 -19 42 -17 17 -25 43 -19 59 6 15 2 23 -9 16 -11 -7 -20 1 -20 16 0 16
-14 40 -30 54 -27 22 -27 17 0 -48 17 -39 24 -72 15 -72 -8 0 -4 -7 9 -16 13
-8 28 -37 33 -64 32 -177 155 -424 287 -579 36 -42 59 -81 52 -88 -6 -7 -23 2
-36 20 -24 34 -70 22 -70 -17 0 -15 8 -15 26 1 19 16 26 12 28 -17 2 -20 -10
-48 -25 -61 -23 -19 -29 -17 -29 9 0 17 -13 32 -30 32 -40 0 -38 19 10 70 l39
42 -71 106 c-39 58 -94 152 -121 209 -33 67 -45 82 -36 43 22 -94 21 -115 -6
-125 -14 -5 -38 21 -54 58 -33 76 -39 44 -13 -68 17 -74 -1 -118 -30 -72 -9
15 -5 18 12 7 17 -11 21 -8 12 7 -8 13 -23 18 -34 12 -10 -6 -14 -20 -8 -29 6
-9 1 -23 -11 -30 -14 -9 -12 -28 9 -59 16 -25 52 -102 80 -170 l51 -125 -77
-103 c-105 -142 -130 -161 -180 -134 -72 38 -100 98 -80 168 10 34 17 81 16
103 -1 24 -10 11 -22 -30 -24 -86 -33 -96 -55 -61 -11 17 -3 65 21 125 45 114
48 146 8 76 -38 -66 -37 -48 2 68 18 52 28 99 22 104 -5 6 -28 -42 -50 -106
-22 -64 -46 -134 -53 -156 -14 -39 -14 -39 17 -1 18 21 32 28 32 16 0 -12 -10
-29 -21 -36 -12 -7 -16 -41 -10 -76 8 -49 7 -54 -8 -23 -15 34 -18 34 -20 6 0
-19 -20 -45 -43 -57 -40 -22 -40 -21 4 39 38 52 41 68 21 112 -28 63 -29 76
-3 60 30 -19 24 16 -13 68 -30 44 -30 51 2 106 19 32 30 63 25 69 -5 5 -31
-27 -56 -72 -27 -48 -53 -74 -63 -64 -26 26 -92 5 -99 -31 -5 -23 -19 -18 -63
23 -45 42 -52 58 -33 81 19 23 16 27 -15 21 -21 -4 -48 9 -62 31 -18 29 -18
38 0 38 13 0 18 6 11 13 -7 7 -27 1 -44 -13 -19 -15 -30 -17 -30 -4 0 12 9 27
20 34 11 7 20 21 20 32 0 11 -8 15 -19 9 -23 -14 -48 22 -32 47 10 17 231
-181 231 -207 0 -6 -13 -11 -30 -11 -16 0 -30 -8 -30 -18 0 -10 14 -23 30 -29
19 -7 30 0 30 20 0 31 24 31 101 -2 23 -9 43 8 69 57 21 39 52 69 69 68 89 -6
99 3 96 85 -3 72 -7 77 -29 46 -37 -49 -32 -25 14 76 21 48 39 105 39 127 0
22 -21 -11 -46 -73 -136 -330 -197 -389 -310 -300 -114 91 -345 384 -261 332
12 -8 7 10 -12 38 -19 29 -41 48 -50 43 -16 -10 -50 63 -71 155 -8 33 -5 55 8
55 27 0 48 -35 26 -43 -10 -4 -10 -25 -2 -47 15 -37 16 -37 18 7 1 37 9 44 36
33 88 -36 117 -36 68 0 -34 25 -40 39 -22 50 17 11 10 23 -23 41 -27 14 -55
35 -63 47 -10 15 -14 15 -15 -2 0 -13 19 -37 41 -53 23 -16 34 -33 25 -39 -26
-16 -82 33 -86 77 -10 87 -2 97 43 57 43 -37 44 -37 27 2 -26 64 -35 165 -21
224 21 84 50 17 51 -118 0 -102 35 -180 55 -121 4 13 27 16 61 7 179 -49 568
102 588 228 7 48 126 59 126 12 0 -15 74 -70 165 -121 91 -52 161 -98 157
-103 -5 -4 54 -8 130 -8 76 0 138 -7 138 -15 0 -29 41 -15 75 26 l35 40 13
-45 c10 -34 14 -25 15 35 3 133 61 187 61 58 1 -56 12 -113 26 -128 14 -15 15
-22 4 -15 -12 6 -66 4 -120 -6 l-99 -18 95 6 c52 4 89 -1 83 -10 -5 -10 -37
-18 -70 -18 -33 0 -55 -8 -49 -18 6 -10 42 -11 80 -2 70 16 95 -2 76 -56 -7
-21 -13 -21 -32 0 -13 15 -22 23 -20 20 2 -4 -10 -40 -27 -80 -29 -69 -28 -71
7 -46 20 15 12 4 -18 -25 -31 -28 -54 -59 -53 -67 15 -89 -34 -108 -163 -63
-66 23 -66 24 -18 41 39 15 43 21 19 37 -25 15 -24 18 6 19 34 0 34 3 5 31
-33 34 -42 58 -14 41 9 -6 34 2 55 18 35 27 31 29 -42 21 -44 -5 -82 -18 -86
-30 -4 -12 -29 -6 -60 14 -47 30 -51 30 -28 2 14 -18 51 -43 81 -56 31 -13 56
-36 56 -52 0 -39 -31 -37 -46 3 -9 23 -16 25 -28 7 -11 -18 -31 -13 -77 20
-34 24 -62 36 -62 25 0 -10 44 -48 99 -85 54 -37 93 -76 87 -86 -7 -11 -3 -14
7 -7 11 6 64 4 118 -6 l99 -18 -99 7 c-62 4 -87 1 -68 -10 17 -10 63 -20 103
-22 95 -7 70 -52 -88 -163 -59 -42 -106 -82 -104 -90 8 -34 44 -18 136 62 87
75 106 84 143 64 43 -21 27 -108 -20 -107 -9 0 -22 -6 -30 -15 -7 -8 0 -7 15
2 22 12 26 8 16 -17 -21 -55 0 -38 47 38 53 87 79 310 30 270 -16 -13 -1 27
33 90 65 121 106 351 69 388 -13 13 -11 47 4 98 46 154 -2 320 -78 272 -28
-17 -30 153 -4 277 34 156 22 301 -29 370 -38 53 -38 56 -3 114 39 63 49 130
20 130 -10 0 -14 20 -9 45 5 27 -8 62 -33 89 -22 24 -41 56 -41 71 0 15 -8 36
-17 46 -10 10 -34 66 -54 123 -20 57 -44 99 -53 94 -9 -6 -22 6 -30 26 -10 28
-101 175 -138 223 -44 58 -142 -83 -100 -146 27 -41 27 -50 0 -84 -29 -35 -30
-34 -19 18 16 76 0 69 -59 -24 -70 -111 -138 -141 -324 -141 -168 -1 -279 -30
-347 -91 -24 -22 -49 -36 -56 -31 -7 4 -28 -23 -47 -60 -38 -76 -48 -37 -14
59 33 95 7 124 -32 34 -23 -53 -31 -113 -26 -181 8 -96 5 -102 -52 -130 -78
-39 -139 -125 -145 -206 -3 -35 -11 -106 -19 -157 -9 -65 -3 -124 20 -190 29
-84 29 -97 2 -112 -16 -9 -30 -30 -30 -46 0 -16 -13 -29 -29 -29 -80 0 -141
-186 -91 -279 32 -62 1 -496 -33 -450 -24 33 -27 28 -26 -42 2 -65 5 -72 21
-39 15 31 17 26 9 -26 -7 -41 -3 -61 9 -54 11 7 20 -4 20 -25 0 -20 8 -46 18
-56 28 -31 45 -249 19 -249 -71 0 -162 92 -221 222 -33 75 -69 132 -79 126
-32 -20 -17 -102 32 -175 53 -78 51 -85 -12 -52 -147 79 -186 277 -105 529 59
183 68 377 22 497 -33 91 -41 83 -74 -76 -21 -103 -159 -397 -160 -339 0 35
76 277 204 648 152 439 196 828 104 914 -63 58 -68 47 89 164 161 119 166 120
151 45 -22 -107 121 -153 160 -52 19 50 -24 109 -79 109 -93 0 -49 35 146 116
569 236 1175 182 1675 -148 249 -165 303 -228 192 -228 -84 0 -133 -122 -64
-159 33 -18 39 -44 40 -187 1 -146 14 -204 103 -465 114 -335 218 -669 219
-699 0 -44 -100 145 -111 210 -39 219 -72 242 -117 81 -38 -135 -23 -284 48
-490 69 -202 36 -349 -104 -458 -83 -65 -94 -53 -28 33 51 67 71 174 32 174
-11 0 -49 -61 -85 -135 -56 -116 -79 -143 -164 -189 -88 -47 -125 -88 -130
-142 0 -9 26 -25 59 -37 69 -24 80 -57 19 -57 -53 0 -119 -35 -119 -63 0 -28
135 -4 196 35 25 17 40 38 33 49 -20 33 11 21 79 -31 73 -55 181 -85 199 -54
7 11 -10 25 -37 32 -48 12 -48 14 -13 49 34 34 48 35 194 10 236 -41 364 24
397 201 23 123 -79 290 -130 210 -9 -15 -18 -20 -18 -10 0 11 -22 -2 -50 -28
-27 -26 -50 -68 -50 -93 0 -25 -28 -77 -62 -116 -44 -51 -53 -71 -31 -71 40 0
130 118 164 215 l27 75 1 -66 c2 -174 -112 -274 -293 -256 -173 18 -245 70
-78 56 102 -8 115 -4 171 52 88 88 75 114 -22 44 -69 -50 -102 -60 -195 -59
-90 0 -105 5 -75 22 20 12 63 16 95 10 39 -8 58 -4 58 13 1 13 46 51 102 84
153 90 385 342 435 472 65 169 50 61 -18 -133 -56 -157 -68 -296 -19 -207 109
193 179 619 163 994 -7 163 -43 22 -44 -172 -1 -118 -9 -250 -19 -294 -12 -56
-16 10 -14 224 3 212 12 312 29 329 14 14 25 33 25 43 0 24 -109 -59 -203
-155 -43 -43 -89 -81 -103 -83 -13 -2 -38 -10 -54 -16 -26 -11 -31 11 -30 137
0 134 4 150 42 160 57 14 95 100 58 131 -30 25 -85 31 -130 14 -22 -9 -47 22
-90 109 -78 159 -78 159 -43 145 35 -13 113 58 113 103 0 48 -82 70 -136 36
-49 -31 -60 52 -30 219 27 154 360 -494 399 -777 15 -108 30 -121 79 -67 79
87 -120 612 -333 875 -68 84 -98 138 -89 160 41 107 413 -553 474 -842 25
-122 70 -147 61 -35 -20 232 -349 864 -475 913 -33 13 16 117 63 136 18 6 29
16 24 21 -16 15 -203 -49 -240 -83 -34 -30 -41 -28 -118 41 -376 340 -1044
512 -1557 401z m949 -565 l10 -94 -28 100 c-15 55 -33 127 -40 160 l-11 60 29
-66 c17 -37 35 -109 40 -160z m-1844 -34 c37 -69 43 -111 41 -300 -3 -335 -40
-383 -53 -70 -7 185 -20 276 -50 350 -82 204 -78 186 -26 140 25 -22 65 -76
88 -120z m2636 104 c-59 -71 -89 -214 -101 -484 l-13 -280 -27 120 c-59 261
-28 496 82 621 56 64 111 85 59 23z m-933 -188 c-31 -55 -32 -55 -22 -6 6 28
17 91 26 140 l16 90 6 -84 c4 -51 -6 -106 -26 -140z m-120 93 c-60 -169 -187
-351 -159 -226 15 63 168 335 181 322 5 -5 -5 -48 -22 -96z m29 -143 c-54
-107 -135 -216 -160 -216 -11 0 16 52 59 115 44 64 91 160 106 215 24 93 26
96 32 36 4 -36 -12 -100 -37 -150z m191 85 c17 -122 -14 -226 -85 -281 -71
-56 -76 -38 -15 51 63 94 76 143 67 257 -9 118 16 98 33 -27z m-343 34 c-8
-14 -39 -59 -70 -101 -30 -42 -60 -103 -67 -135 -14 -64 -50 -100 -50 -50 0
57 53 162 120 237 64 74 96 97 67 49z m-475 -53 c-19 -21 -52 -81 -74 -135
l-40 -97 10 78 c7 48 32 100 65 135 60 63 93 79 39 19z m130 -49 c-36 -38 -77
-103 -93 -145 -15 -43 -28 -62 -28 -42 -2 56 50 164 101 211 74 70 92 49 20
-24z m3 -76 c-9 -35 -5 -41 22 -31 18 7 33 3 33 -9 0 -12 -17 -17 -39 -12 -30
8 -42 -4 -57 -62 -18 -67 -20 -69 -22 -17 -2 49 46 174 67 174 4 0 2 -20 -4
-43z m566 -35 c-31 -61 -121 -142 -157 -142 -11 0 17 35 63 77 46 42 83 87 83
100 0 13 9 23 21 23 11 0 7 -25 -10 -58z m-439 -90 c-2 -141 -32 -162 -32 -22
0 77 14 150 30 150 2 0 4 -58 2 -128z m136 13 c-15 -87 -48 -135 -48 -70 0 49
33 145 50 145 7 0 6 -34 -2 -75z m-208 -172 c113 -57 152 -68 182 -52 21 11
38 14 38 7 0 -7 12 -3 26 9 23 19 262 102 296 103 6 0 51 -36 100 -80 48 -44
76 -80 61 -80 -24 0 -24 -5 0 -33 37 -45 58 -447 23 -447 -27 0 -66 121 -66
205 0 30 -8 55 -18 55 -25 0 -47 -133 -32 -198 l12 -55 -119 9 c-98 7 -140 -1
-234 -44 -146 -67 -199 -66 -339 8 -99 52 -135 60 -272 60 -113 0 -158 7 -158
25 -1 17 -7 15 -20 -5 -33 -51 -23 239 12 350 17 55 33 110 35 123 29 150 220
166 473 40z m1577 -640 c4 -167 0 -234 -15 -224 -12 7 -22 31 -22 52 0 22 -31
159 -68 304 -37 146 -73 315 -80 375 l-12 110 95 -190 95 -189 7 -238z m-2801
474 c-9 -62 -52 -248 -94 -413 l-76 -300 -13 144 c-18 194 -2 280 91 497 92
213 117 232 92 72z m1024 -447 c20 -13 -28 -15 -140 -7 -93 7 -174 16 -178 20
-20 17 291 5 318 -13z m828 -21 c51 0 71 -6 52 -15 -16 -9 -97 -12 -180 -7
-106 5 -138 13 -110 25 22 9 66 12 98 7 31 -5 94 -9 140 -10z m-2222 -209 c36
-74 51 -146 60 -280 l10 -180 -45 150 c-98 321 -91 302 -78 200 6 -49 33 -173
59 -275 53 -204 57 -232 26 -180 -11 20 -29 31 -39 24 -63 -38 -139 238 -139
501 l0 260 49 -60 c27 -33 70 -105 97 -160z m3510 -110 c-8 -210 -97 -483
-137 -419 -9 15 -18 10 -27 -12 -34 -91 -30 4 8 151 54 211 79 348 61 327 -8
-9 -34 -93 -59 -187 -59 -227 -75 -234 -60 -24 13 182 50 283 156 423 l52 68
7 -58 c4 -33 3 -153 -1 -269z m-2613 247 c21 -18 37 -57 37 -85 l0 -52 -49 60
c-38 46 -50 52 -50 25 -1 -53 -41 -42 -41 12 0 79 42 96 103 40z m139 -160
c19 -60 64 -91 168 -114 22 -4 7 -9 -33 -11 -112 -3 -161 48 -168 179 -4 60
-2 87 3 59 6 -27 19 -78 30 -113z m161 88 c7 -12 17 -12 25 1 8 14 34 15 72 4
42 -12 60 -10 61 6 0 13 10 8 21 -13 12 -20 16 -41 10 -48 -7 -6 -12 -1 -12
13 0 13 -9 19 -20 12 -12 -7 -15 -21 -9 -32 7 -10 5 -18 -5 -16 -39 7 -67 -4
-57 -21 7 -11 -8 -15 -33 -9 -26 6 -57 13 -71 15 -31 7 -84 74 -84 109 -1 30
80 13 102 -21z m982 -12 c-7 -18 -3 -24 10 -16 39 24 53 -32 15 -60 -27 -19
-44 -21 -63 -4 -15 12 -45 17 -68 11 -48 -13 -77 36 -42 71 17 17 23 17 23 -2
0 -19 9 -19 40 3 53 37 99 35 85 -3z m382 7 c7 -16 4 -50 -6 -75 -16 -40 -31
-20 -23 30 4 29 -20 14 -67 -40 l-47 -55 11 60 c18 103 104 154 132 80z m-207
-92 c-19 -101 -50 -134 -140 -148 l-70 -12 68 36 c71 38 89 60 122 151 28 80
37 67 20 -27z m698 -158 c41 -87 62 -160 62 -220 -1 -130 -32 -167 -50 -60 -8
47 -36 147 -62 223 -27 75 -47 170 -46 212 1 67 3 69 17 25 9 -27 44 -108 79
-180z m212 200 c7 -12 2 -52 -10 -91 -13 -38 -26 -117 -29 -174 -9 -144 -11
-151 -31 -100 -11 27 -10 110 4 215 22 161 37 196 66 150z m-2861 -83 c-7 -46
-35 -144 -61 -220 -27 -75 -48 -165 -48 -201 0 -47 -6 -58 -23 -41 -43 43 -10
253 64 404 80 164 87 169 68 58z m2799 -434 c-17 -93 -72 -202 -126 -251 -57
-52 -53 -9 7 87 27 43 60 119 73 169 27 107 65 103 46 -5z m-195 -311 c-12
-34 -165 -118 -195 -108 -11 4 28 38 86 77 112 75 128 79 109 31z m427 -76 c0
-68 -64 -186 -111 -204 -20 -7 -13 14 21 63 32 47 50 102 50 151 0 46 8 71 20
64 11 -7 20 -40 20 -74z m-3460 -9 c0 -48 18 -97 53 -142 47 -62 48 -67 10
-47 -77 42 -147 262 -83 262 11 0 20 -33 20 -73z m1881 -162 c13 -41 51 -132
84 -201 67 -137 65 -149 -36 -273 -41 -51 -46 -54 -36 -15 9 32 3 44 -21 44
-28 0 -29 7 -11 41 17 33 28 37 50 19 15 -13 37 -18 48 -10 31 19 2 55 -33 41
-23 -8 -27 -2 -17 24 16 41 4 29 -88 -91 -100 -130 -99 -83 1 52 l88 119 47
-63 c56 -73 52 -59 -24 87 -72 136 -116 260 -102 283 18 29 25 22 50 -57z
m-1153 38 c14 -22 -148 -46 -177 -27 -12 8 15 19 59 26 44 7 86 14 94 15 7 2
18 -5 24 -14z m2102 -22 c-22 -9 -76 -9 -120 -1 -75 14 -73 15 40 16 81 1 107
-4 80 -15z m-767 -48 c-42 -44 -42 -127 -1 -102 10 6 12 -3 6 -20 -7 -17 -2
-31 11 -31 13 0 18 -9 11 -20 -35 -57 27 -9 65 50 45 69 115 100 92 40 -6 -16
-24 -30 -40 -30 -16 0 -24 -8 -18 -18 6 -9 -4 -29 -21 -44 -18 -15 -39 -43
-46 -64 -12 -31 -26 -16 -76 77 l-61 114 41 48 c23 26 50 47 61 47 11 0 0 -21
-24 -47z m672 14 c25 -6 45 -25 45 -41 0 -21 -11 -26 -35 -16 -19 7 -51 17
-70 20 -19 4 -50 17 -70 28 -41 24 50 31 130 9z m-1395 -37 c0 8 12 5 28 -8
30 -25 32 -129 4 -156 -11 -9 -12 -5 -3 11 11 19 4 24 -25 20 -64 -11 -127 79
-86 123 22 23 40 27 57 14 14 -10 25 -12 25 -4z m180 -296 c0 -31 115 -153
147 -156 13 -2 30 -1 39 0 10 2 11 -6 4 -17 -22 -37 -159 53 -205 134 -30 54
-31 65 -5 65 11 0 20 -12 20 -26z"/>
<path d="M3000 3449 c0 -29 44 -49 112 -49 74 0 57 29 -32 53 -62 17 -80 16
-80 -4z"/>
<path d="M2695 3429 c-71 -39 -70 -51 5 -36 39 8 89 -2 149 -31 94 -44 151
-54 151 -26 0 13 -112 68 -239 118 -6 2 -36 -9 -66 -25z"/>
<path d="M3310 3355 c-189 -25 -221 -43 -96 -51 73 -4 131 6 190 33 47 22 77
39 66 38 -11 0 -83 -10 -160 -20z"/>
<path d="M3064 4756 c-76 -76 19 -216 98 -144 48 43 49 92 1 135 -43 39 -67
41 -99 9z"/>
<path d="M2616 4668 c-31 -68 0 -118 74 -118 77 0 105 75 50 130 -54 54 -96
50 -124 -12z"/>
<path d="M2880 4680 c0 -45 50 -54 66 -12 13 33 -2 52 -39 52 -15 0 -27 -18
-27 -40z"/>
<path d="M3320 4680 c0 -45 50 -54 66 -12 13 33 -2 52 -39 52 -15 0 -27 -18
-27 -40z"/>
<path d="M2462 4593 c-24 -29 -10 -53 31 -53 30 0 37 52 9 69 -9 6 -27 -1 -40
-16z"/>
<path d="M845 4535 c-45 -57 -246 -401 -239 -408 5 -5 35 7 66 25 57 32 60 32
265 -81 114 -62 210 -110 212 -107 91 127 91 147 -3 186 -67 28 -71 34 -42 63
29 29 37 28 94 -5 69 -41 72 -40 150 97 58 103 58 106 -14 73 -38 -17 -62 -15
-112 11 -35 18 -71 28 -80 22 -10 -6 -23 1 -28 16 -27 70 -234 153 -269 108z
m155 -191 c0 -9 -13 -34 -29 -55 -33 -46 -85 -14 -64 40 12 31 93 45 93 15z"/>
<path d="M3944 4545 c-69 -12 -100 -94 -54 -145 45 -50 60 -50 110 0 68 68 32
159 -56 145z"/>
<path d="M5514 4393 c-8 -20 -14 -52 -14 -72 0 -25 -61 -64 -219 -137 l-220
-102 28 -65 c33 -81 52 -88 127 -49 32 17 65 25 71 18 31 -30 8 -68 -57 -95
l-69 -29 49 -106 c54 -117 90 -145 90 -71 0 42 28 62 195 144 235 114 264 150
199 239 -28 38 -168 -10 -205 -70 -10 -16 -19 -14 -31 5 -32 50 -18 70 82 117
55 26 99 52 98 58 -8 65 -113 245 -124 215z"/>
<path d="M2070 4380 c-17 -27 6 -60 41 -60 16 0 29 18 29 40 0 41 -48 55 -70
20z"/>
<path d="M4134 4367 c-28 -27 -13 -70 21 -63 19 4 35 19 35 35 0 31 -35 49
-56 28z"/>
<path d="M1474 4250 c-109 -139 -238 -381 -292 -548 -61 -186 -50 -198 17 -20
74 200 201 442 301 573 43 58 75 105 70 105 -5 0 -48 -50 -96 -110z"/>
<path d="M4740 4315 c0 -17 182 -255 194 -255 5 0 -7 25 -25 56 -40 68 -169
220 -169 199z"/>
<path d="M553 3891 c-29 -27 -53 -63 -53 -79 0 -17 -22 -100 -49 -185 -55
-173 -52 -194 16 -130 l46 43 223 -58 c132 -35 228 -51 235 -40 13 21 128 437
129 466 0 11 -22 -1 -48 -26 l-48 -45 -194 51 c-106 29 -196 52 -199 52 -3 0
-29 -22 -58 -49z m266 -170 c54 -15 68 -39 45 -75 -12 -19 -36 -18 -108 3 -51
15 -98 23 -104 16 -7 -6 -12 6 -12 28 0 71 8 73 179 28z"/>
<path d="M5774 3768 c-8 -8 -14 -31 -14 -51 0 -49 -37 -65 -276 -120 l-207
-47 13 -90 c23 -167 56 -212 82 -111 11 44 33 54 212 94 239 53 264 72 245
185 -19 109 -37 157 -55 140z"/>
<path d="M4649 3658 c-7 -12 -6 -29 4 -39 24 -24 76 11 58 39 -17 28 -45 28
-62 0z"/>
<path d="M1105 3431 c-14 -50 -24 -130 -23 -176 2 -69 8 -55 30 75 32 185 28
234 -7 101z"/>
<path d="M4250 3421 c-7 -12 -3 -21 9 -21 11 0 20 -7 19 -15 -7 -44 4 -66 27
-52 20 12 20 8 0 -16 -20 -25 -19 -30 5 -30 17 0 30 12 30 28 0 42 -74 130
-90 106z"/>
<path d="M5163 3360 c4 -107 32 -180 34 -90 1 44 -6 94 -17 110 -15 24 -19 19
-17 -20z"/>
<path d="M900 3324 c-27 -40 -53 -46 -250 -57 -282 -16 -270 -4 -270 -279 0
-232 12 -268 60 -178 26 49 31 50 263 50 l237 0 0 88 0 89 -190 -12 c-135 -8
-191 -4 -193 12 -2 13 -4 33 -5 46 -1 16 54 21 183 19 212 -5 211 -6 201 160
-6 101 -7 104 -36 62z"/>
<path d="M5868 3318 c-12 -15 -27 -44 -34 -63 -11 -31 -42 -35 -253 -35 l-241
0 0 -91 0 -91 190 14 190 13 0 -47 c0 -48 -1 -48 -190 -42 l-190 7 0 -132 c0
-125 24 -172 49 -94 10 32 42 39 235 50 288 16 279 6 272 303 -5 176 -12 229
-28 208z"/>
<path d="M1060 3077 c0 -99 12 -96 28 8 7 44 4 75 -8 75 -11 0 -20 -37 -20
-83z"/>
<path d="M1073 2840 c7 -71 16 -134 20 -138 15 -18 3 190 -14 228 -11 26 -14
-6 -6 -90z"/>
<path d="M3080 2894 c0 -6 34 -22 75 -36 41 -13 120 -54 175 -90 55 -36 127
-71 160 -77 53 -10 51 -8 -13 17 -40 16 -120 61 -177 100 -58 40 -116 72 -131
72 -14 0 -40 5 -57 12 -18 7 -32 8 -32 2z"/>
<path d="M3100 2830 c0 -5 31 -25 68 -45 86 -44 203 -186 170 -206 -16 -10
-16 -18 0 -28 12 -7 22 -3 22 9 0 12 9 17 20 10 12 -7 16 -20 10 -30 -5 -9 8
-12 29 -6 36 9 34 14 -20 60 -71 60 -79 103 -10 58 91 -59 73 -33 -39 59 -122
99 -250 161 -250 119z"/>
<path d="M913 2775 c-7 -19 -17 -47 -21 -61 -4 -15 -104 -52 -221 -83 -131
-35 -219 -69 -230 -89 -18 -34 -6 -142 16 -142 51 2 354 105 366 125 12 18 16
16 17 -8 0 -19 5 -47 11 -63 9 -22 -31 -39 -175 -74 -102 -25 -189 -48 -192
-51 -4 -3 4 -60 17 -128 25 -124 58 -150 79 -61 9 39 34 54 141 81 264 68 297
80 307 114 15 49 -100 484 -115 440z"/>
<path d="M3082 2786 c6 -37 -4 -54 -19 -31 -11 18 -35 -3 -78 -70 -103 -158
-204 -264 -302 -315 -51 -26 -79 -49 -63 -49 17 0 59 17 96 39 36 22 90 39
120 37 92 -5 98 0 94 78 -3 51 11 97 44 145 l48 70 -14 -60 c-17 -74 -9 -66
57 55 29 53 44 100 33 106 -10 7 -18 5 -16 -5z"/>
<path d="M2826 2621 c-35 -22 -107 -53 -160 -70 -95 -31 -11 -29 90 2 19 5 12
-5 -16 -23 -34 -22 -38 -29 -12 -21 22 7 47 1 57 -13 14 -19 16 -16 8 9 -8 23
-1 35 19 35 19 0 25 -10 16 -25 -8 -14 -7 -18 3 -9 38 34 27 76 -18 64 -29 -9
-23 1 22 31 36 23 65 47 65 51 0 13 -6 10 -74 -31z"/>
<path d="M5310 2633 c-4 -13 -31 -111 -59 -218 -29 -107 -57 -208 -64 -225 -7
-18 0 -30 19 -30 16 0 35 15 42 33 13 33 61 32 225 -4 59 -12 107 78 107 202
0 5 -27 9 -60 9 -33 0 -60 -9 -60 -20 0 -11 -9 -20 -20 -20 -11 0 -20 23 -20
52 0 41 7 49 34 39 19 -7 73 -18 120 -25 47 -6 86 -13 86 -15 0 -2 -14 -51
-31 -109 -37 -124 -28 -162 37 -162 81 0 107 44 162 268 58 236 58 261 -4 182
l-41 -51 -233 58 c-163 42 -235 52 -240 36z"/>
<path d="M3218 2586 c-1 -9 -1 -37 2 -63 2 -35 -4 -43 -23 -32 -16 9 -20 8
-10 -3 9 -10 27 -18 40 -19 13 0 21 -12 18 -25 -3 -13 3 -24 14 -24 10 0 24
-19 31 -42 26 -81 28 -25 2 62 -17 57 -31 78 -39 59 -7 -16 -10 -4 -6 26 4 31
0 61 -10 67 -9 6 -18 3 -19 -6z"/>
<path d="M3650 2560 c22 -9 85 -17 140 -16 l100 1 -90 16 c-128 23 -204 22
-150 -1z"/>
<path d="M2385 2475 c31 -31 52 -39 68 -25 29 25 13 41 -58 58 l-54 13 44 -46z"/>
<path d="M2650 2429 c-33 -15 -81 -28 -106 -28 -26 -1 -41 -9 -35 -19 14 -22
143 10 200 50 50 35 20 33 -59 -3z"/>
<path d="M1171 2370 c15 -73 91 -254 103 -243 4 4 -20 74 -54 155 -34 82 -56
121 -49 88z"/>
<path d="M2739 2289 c-15 -18 -67 -53 -118 -80 -50 -26 -77 -48 -60 -48 40 -1
219 112 219 139 0 28 -11 25 -41 -11z"/>
<path d="M2752 2168 c-7 -17 -3 -25 8 -18 29 18 35 -69 10 -140 -8 -22 4 -13
25 20 25 38 33 68 22 83 -13 15 -7 22 17 20 19 -2 38 13 42 34 5 24 0 33 -14
24 -13 -8 -17 -22 -11 -32 18 -30 -25 -22 -58 10 -26 26 -31 26 -41 -1z"/>
<path d="M980 2080 c-16 -11 -49 -20 -73 -20 -25 0 -66 -28 -95 -65 -29 -36
-67 -80 -85 -99 -17 -19 -27 -48 -20 -65 7 -18 -5 -60 -26 -95 -45 -73 -38
-96 30 -96 38 0 49 -10 49 -48 0 -72 41 -96 120 -69 50 17 75 17 103 0 60 -38
113 -26 147 32 18 30 68 70 111 89 80 34 109 96 44 96 -30 -1 -31 -3 -5 -20
25 -16 24 -19 -6 -20 -25 0 -34 11 -27 35 22 82 33 196 13 150 -25 -60 -47
-57 -35 5 8 40 1 50 -33 51 -39 0 -39 2 -6 21 20 12 50 16 66 10 17 -7 25 -3
18 8 -7 11 -39 20 -72 20 -75 0 -138 32 -138 71 0 33 -36 37 -80 9z m40 -95
c-16 -6 -42 -24 -57 -39 -16 -16 -39 -24 -52 -19 -18 7 -20 -14 -11 -79 8 -48
10 -88 6 -88 -4 0 2 -18 14 -40 12 -22 39 -40 60 -40 20 0 43 -9 50 -20 14
-23 -2 -25 -85 -8 -37 7 -69 31 -82 60 -12 26 -34 48 -49 48 -15 0 -38 23 -51
51 -13 30 -15 46 -3 39 11 -7 20 -3 20 9 0 11 15 21 34 21 26 0 29 -5 10 -24
-33 -33 -30 -51 13 -75 35 -18 37 -13 28 69 -10 90 49 147 155 147 26 0 26 -2
0 -12z m96 -29 c41 -41 26 -61 -36 -49 -112 22 -162 -36 -80 -93 22 -15 33
-36 25 -46 -8 -10 8 2 36 26 l50 45 4 -50 c3 -27 -4 -50 -15 -51 -11 -2 -28
-4 -38 -5 -10 -2 -25 -10 -34 -18 -8 -8 -28 -15 -45 -15 -24 0 -25 6 -8 23 18
18 15 31 -14 56 -49 43 -33 129 30 158 30 14 52 14 59 2 7 -10 23 -18 36 -17
17 1 17 4 -1 11 -28 11 -34 47 -9 47 9 0 27 -11 40 -24z m84 -82 c0 -25 10
-56 22 -68 24 -24 -98 -166 -141 -166 -37 0 -22 37 21 50 22 8 36 18 30 24 -6
6 2 36 18 65 15 30 23 74 17 98 -7 25 -2 43 11 43 12 0 22 -21 22 -46z m-324
-254 c42 0 17 -49 -29 -56 -35 -5 -41 6 -42 80 -1 82 0 83 21 31 12 -30 34
-55 50 -55z m216 -18 c22 18 28 16 28 -7 0 -60 -52 -80 -119 -45 -74 38 -64
78 12 49 36 -14 60 -13 79 3z"/>
<path d="M5310 2080 c-7 -11 -38 -20 -70 -20 -44 0 -72 -19 -114 -75 -31 -41
-67 -87 -80 -101 -13 -14 -20 -37 -14 -51 5 -15 -13 -71 -40 -125 -54 -107
-30 -183 50 -157 21 6 42 -3 54 -22 15 -28 33 -30 106 -15 57 12 108 11 145
-3 52 -18 63 -14 110 41 29 33 87 76 128 95 86 40 92 57 31 97 -41 28 -42 34
-16 124 29 105 15 131 -74 132 -70 0 -146 36 -146 70 0 34 -51 41 -70 10z m43
-48 c-7 -19 10 -36 48 -49 42 -15 59 -34 59 -67 -1 -37 -4 -40 -20 -16 -15 24
-19 24 -20 3 0 -22 -6 -23 -29 -4 -30 25 -79 11 -62 -18 6 -9 44 -23 84 -30
41 -8 65 -20 53 -28 -12 -7 -25 -31 -29 -53 -4 -22 -23 -40 -41 -40 -18 0 -40
-7 -48 -15 -30 -30 -52 -14 -26 20 15 19 19 29 11 22 -9 -8 -32 1 -51 20 -35
34 -33 122 3 146 11 6 -4 12 -33 12 -39 0 -48 -6 -33 -24 12 -14 18 -66 15
-116 -3 -51 1 -88 9 -83 8 5 20 0 27 -12 7 -11 29 -20 50 -20 21 0 44 -10 52
-23 26 -43 -140 4 -177 49 l-34 44 -1 -54 c0 -35 15 -63 41 -76 49 -26 33 -60
-27 -60 -40 0 -44 9 -37 89 5 67 -4 104 -35 149 l-43 59 42 13 c45 15 86 -9
43 -25 -20 -7 -19 -18 8 -47 45 -49 75 -49 49 1 -12 21 -21 61 -21 89 0 27 -9
55 -19 61 -21 14 -6 71 19 71 9 0 11 -18 6 -40 -10 -37 -6 -39 45 -20 38 15
62 15 76 1 27 -27 73 -27 73 -1 0 11 -18 20 -40 20 -45 0 -51 21 -16 56 32 32
43 30 29 -4z m239 -81 c6 -16 1 -45 -11 -65 -21 -34 -22 -33 -16 4 4 29 -8 42
-45 47 -46 7 -47 9 -10 24 58 24 70 22 82 -10z m-98 -247 c-40 -40 -80 -64
-88 -55 -9 9 -5 21 9 26 33 11 85 134 86 202 1 48 4 45 33 -24 l32 -77 -72
-72z m-386 24 c18 -46 16 -48 -38 -48 -45 0 -48 4 -25 40 30 48 47 50 63 8z
m277 -143 c19 -5 35 0 35 13 0 12 9 22 20 22 30 0 24 -52 -9 -79 -22 -18 -42
-17 -90 8 -64 34 -87 86 -26 61 19 -8 51 -19 70 -25z"/>
<path d="M5300 1844 c0 -35 76 -80 98 -58 31 31 27 55 -6 42 -15 -6 -34 -1
-41 11 -15 24 -51 28 -51 5z"/>
<path d="M3801 2052 c-30 -36 4 -60 60 -42 33 11 36 19 18 42 -30 35 -48 35
-78 0z"/>
<path d="M3708 1956 c-9 -13 3 -35 28 -52 34 -22 39 -36 23 -66 -27 -50 5 -49
51 2 28 30 42 35 63 17 21 -17 27 -15 27 9 0 21 -16 29 -50 25 -37 -4 -45 1
-31 18 14 17 3 22 -40 19 -32 -2 -59 5 -59 16 0 11 14 15 30 9 17 -7 30 -3 30
8 0 27 -55 24 -72 -5z"/>
<path d="M2440 1755 c0 -17 7 -35 16 -38 32 -14 148 -200 177 -286 16 -49 43
-99 58 -112 16 -13 29 -36 29 -51 0 -48 391 -346 438 -334 23 6 42 19 42 28 0
10 26 29 57 43 59 25 303 275 269 275 -10 0 -58 -42 -107 -92 -49 -51 -132
-127 -184 -169 l-96 -77 -186 150 c-209 166 -353 368 -263 368 17 0 30 9 30
20 0 27 -27 25 -56 -4 -19 -19 -24 -17 -24 6 0 17 -40 87 -89 156 -107 153
-111 157 -111 117z"/>
<path d="M4433 1722 c12 -60 9 -62 -56 -62 -49 0 -99 -23 -178 -82 -127 -96
-322 -197 -479 -248 -105 -35 -136 -58 -180 -134 -35 -59 267 41 496 165 232
125 561 399 480 399 -18 0 -47 5 -64 12 -26 10 -30 1 -19 -50z"/>
<path d="M3799 1674 c-39 -46 -93 -115 -119 -154 -26 -38 -53 -74 -59 -80 -17
-15 -81 -117 -81 -129 0 -34 37 1 89 84 33 52 107 151 165 220 58 69 106 130
106 135 0 28 -37 0 -101 -76z"/>
<path d="M4500 1647 c-246 -254 -646 -473 -947 -518 -74 -11 -115 -33 -189
-103 -52 -49 -83 -83 -70 -77 14 7 78 16 144 20 399 26 993 336 1241 650 92
115 64 101 -87 -48 -262 -257 -591 -443 -953 -540 -201 -54 -279 -63 -279 -32
0 19 21 26 276 89 350 87 796 358 984 597 76 98 -18 68 -120 -38z"/>
<path d="M584 1638 c-4 -47 3 -58 37 -58 26 0 36 -8 27 -23 -9 -14 -5 -18 9
-9 34 21 28 44 -23 99 l-46 50 -4 -59z"/>
<path d="M1608 1613 c41 -50 117 -124 168 -166 52 -42 99 -81 104 -88 95 -114
752 -405 845 -374 13 4 -57 33 -156 63 -186 58 -421 168 -559 260 -97 66 -390
314 -390 330 0 7 -19 24 -43 39 -29 18 -18 -3 31 -64z"/>
<path d="M3881 1621 c-25 -46 -9 -95 40 -122 56 -30 78 -23 103 31 42 93 -95
181 -143 91z"/>
<path d="M843 1399 c-26 -21 -68 -39 -94 -39 -26 0 -58 -17 -73 -37 -14 -20
-51 -43 -82 -50 -38 -10 -63 -34 -77 -72 -11 -31 -36 -61 -57 -67 -50 -13 -44
-254 8 -312 32 -36 32 -40 -16 -92 -84 -91 -8 -182 137 -165 76 8 96 3 135
-39 68 -74 106 -89 165 -66 34 13 67 12 98 -2 83 -38 209 42 225 143 8 44 29
91 48 105 47 33 100 141 100 204 0 28 14 85 31 125 73 176 -45 329 -271 353
-28 3 -70 16 -94 29 -63 34 -129 27 -183 -18z m186 -18 c28 -31 45 -35 74 -19
28 14 49 12 82 -11 24 -17 60 -31 79 -31 20 0 36 -9 36 -19 0 -11 -13 -15 -29
-9 -24 10 -25 2 -7 -46 29 -78 5 -193 -54 -261 l-48 -55 7 83 c5 55 -1 87 -17
94 -14 5 -27 37 -28 72 -1 34 7 57 17 50 11 -6 19 -29 19 -51 0 -22 9 -35 20
-28 12 7 15 21 9 31 -6 11 -1 19 12 19 18 0 18 8 -1 30 -20 24 -20 30 3 31 15
1 9 10 -13 19 -27 12 -30 18 -10 19 27 1 27 4 0 21 -49 32 -100 25 -86 -12 11
-29 6 -29 -46 -2 -40 20 -91 27 -158 20 -94 -10 -98 -9 -60 21 22 18 65 32 96
32 32 1 51 10 44 21 -22 36 23 21 59 -19z m-299 -81 c-7 -11 9 -20 38 -20 52
0 81 -28 81 -80 1 -16 12 -28 26 -25 14 3 25 -5 25 -17 0 -12 -13 -17 -30 -11
-16 7 -30 3 -30 -8 0 -10 14 -19 31 -19 20 0 29 -14 25 -35 -7 -38 -116 -63
-116 -26 0 11 19 21 43 21 l43 0 -45 39 c-31 27 -43 55 -37 87 8 39 2 46 -33
39 -31 -6 -43 3 -45 34 -2 22 5 41 16 41 11 0 15 -9 8 -20z m249 -45 c0 -54
-4 -59 -21 -30 -11 19 -43 35 -70 35 -31 0 -45 8 -37 21 7 12 25 17 40 11 15
-6 33 -2 40 9 24 40 49 17 48 -46z m114 -5 c18 -47 -10 -128 -56 -166 -23 -19
-68 -61 -99 -94 -92 -96 -67 -41 33 71 68 77 86 109 70 128 -24 28 -8 91 22
91 10 0 23 -14 30 -30z m-443 -30 c-19 -21 -43 -34 -53 -28 -9 6 -17 -4 -17
-21 0 -18 -13 -37 -30 -44 -22 -8 -30 -42 -30 -120 0 -60 8 -104 17 -99 10 6
42 -11 70 -37 58 -54 42 -81 -31 -53 -106 40 -128 220 -41 330 25 32 45 65 45
73 0 14 38 30 88 37 10 1 2 -16 -18 -38z m730 -57 c0 -29 -10 -66 -21 -83 -16
-22 -18 -7 -8 55 10 71 7 85 -20 85 -19 0 -28 9 -20 21 21 35 69 -20 69 -78z
m-641 29 c18 -23 16 -33 -13 -50 -20 -11 -25 -21 -11 -21 14 -1 25 -14 25 -31
0 -36 -92 -33 -123 4 -24 29 -3 72 26 54 11 -6 25 7 31 30 13 49 32 53 65 14z
m-154 -160 c-11 -58 57 -112 141 -112 32 0 51 -8 44 -20 -18 -30 -104 -24
-171 11 -57 29 -83 118 -46 156 27 27 41 12 32 -35z m215 -37 c0 -22 -56 -18
-101 6 -64 34 -44 55 31 31 39 -12 70 -29 70 -37z m360 39 c0 -55 -63 -114
-121 -114 -34 0 -59 -11 -59 -25 0 -29 -64 -75 -150 -108 l-60 -22 58 -16 c36
-9 72 -6 95 8 51 32 54 30 48 -26 -5 -44 -1 -47 34 -28 30 16 44 15 56 -4 10
-17 18 -10 22 23 4 28 20 47 38 46 23 -2 28 14 23 61 -6 52 2 67 45 87 28 13
61 47 71 75 29 74 60 41 60 -62 0 -82 -4 -89 -50 -89 -50 0 -69 -30 -28 -44
22 -7 -156 -216 -185 -216 -8 0 -10 16 -4 35 11 32 10 32 -15 2 -16 -18 -41
-37 -58 -43 -20 -7 -15 -11 14 -12 24 -1 49 -11 57 -23 8 -14 21 -14 40 2 15
12 39 19 53 13 15 -5 2 -19 -31 -32 -31 -12 -66 -16 -77 -9 -12 7 -40 14 -64
15 -29 2 -40 14 -36 39 6 32 2 33 -23 10 -16 -15 -28 -35 -26 -46 6 -37 -59
-31 -104 10 -43 41 -49 87 -11 91 10 1 35 9 56 18 22 10 52 7 75 -7 32 -20 37
-17 37 22 0 35 -12 46 -55 48 -30 2 -77 5 -105 6 -27 2 -85 -1 -128 -5 -75 -9
-138 19 -119 51 5 8 31 15 58 15 27 0 65 9 84 19 19 11 123 61 231 112 108 51
202 105 207 121 14 35 47 37 47 2z m-444 -355 c91 25 104 26 104 3 0 -15 -75
-37 -245 -71 -19 -4 -55 10 -80 30 -65 55 -14 85 79 46 52 -22 85 -23 142 -8z"/>
<path d="M5240 1420 c-16 -11 -52 -20 -80 -20 -206 -2 -407 -229 -322 -364 13
-21 29 -76 35 -122 13 -97 47 -170 101 -218 20 -19 39 -64 42 -100 2 -38 22
-81 46 -100 22 -19 35 -45 27 -58 -10 -16 -19 -15 -32 5 -12 18 -15 11 -10
-23 5 -38 20 -50 65 -54 41 -3 49 1 29 14 -16 9 -36 13 -45 8 -24 -16 -19 21
7 47 16 16 35 17 60 3 25 -13 51 -12 82 5 25 13 82 22 128 20 69 -4 90 5 131
53 41 49 62 58 140 56 64 -1 104 9 134 36 43 39 58 112 23 112 -41 0 -66 82
-35 117 49 56 58 279 12 304 -20 11 -43 43 -50 71 -9 35 -30 53 -71 62 -32 6
-67 28 -78 49 -11 20 -41 37 -67 37 -26 0 -69 18 -97 40 -55 43 -127 51 -175
20z m52 -17 c-6 -10 10 -18 36 -18 27 0 69 -16 95 -35 46 -34 45 -34 -58 -23
-58 6 -105 4 -105 -6 0 -9 -22 -21 -50 -26 -27 -5 -50 -4 -50 3 0 6 -24 13
-53 15 -38 2 -45 -2 -25 -15 22 -13 19 -18 -12 -18 -33 -1 -35 -4 -10 -20 27
-18 27 -22 0 -40 -22 -14 -23 -19 -4 -20 15 0 21 -8 15 -19 -6 -10 -3 -24 9
-31 11 -7 20 6 20 28 0 22 8 45 19 51 10 7 18 -16 17 -50 -1 -35 -14 -67 -28
-72 -16 -7 -22 -37 -17 -88 5 -56 1 -75 -18 -67 -71 27 -123 258 -72 319 17
20 17 29 1 29 -12 0 -22 -10 -22 -21 0 -12 -9 -16 -21 -8 -32 19 18 69 69 69
24 0 55 11 68 24 19 19 34 19 62 2 29 -18 42 -15 69 16 32 37 86 55 65 21z
m37 -102 c7 -11 25 -14 42 -8 16 6 29 1 29 -11 0 -12 -18 -22 -39 -22 -21 0
-48 -16 -59 -35 -17 -29 -21 -24 -21 30 -1 63 24 86 48 46z m-113 -92 c-3 -52
10 -84 56 -134 108 -117 120 -147 25 -65 -99 86 -114 107 -136 201 -13 51 -9
61 23 64 30 2 36 -10 32 -66z m324 49 c23 -17 18 -19 -25 -12 -49 7 -53 3 -42
-39 8 -35 -1 -59 -34 -88 l-45 -39 43 0 c24 0 43 -9 43 -20 0 -37 -98 -21
-120 20 -18 34 -15 40 19 40 23 0 41 9 41 19 0 11 -13 15 -30 8 -16 -6 -30 -1
-30 11 0 12 11 20 25 17 14 -3 25 9 26 25 1 74 66 103 129 58z m-580 -18 c0
-11 -10 -20 -23 -20 -14 0 -18 -24 -11 -67 11 -72 -11 -134 -35 -95 -23 38
-18 139 8 171 29 35 61 41 61 11z m734 -53 c17 -27 25 -54 18 -62 -8 -7 -19 7
-25 31 -6 24 -18 39 -27 34 -8 -5 -30 8 -49 29 -33 37 -33 38 8 27 24 -6 58
-33 75 -59z m-108 -9 c6 -23 20 -36 31 -30 29 18 50 -25 26 -54 -37 -45 -129
-40 -117 6 6 22 2 45 -9 52 -11 7 -10 23 4 40 33 39 52 35 65 -14z m122 -130
c44 -115 -117 -220 -228 -148 -22 15 -12 19 41 20 96 0 165 51 154 112 -11 54
14 65 33 16z m53 -165 c-8 -15 -15 26 -16 90 l-1 117 16 -90 c8 -49 9 -102 1
-117z m-615 149 c11 -28 366 -212 410 -212 32 0 31 -34 -1 -47 -14 -5 8 -5 48
1 40 6 89 0 110 -13 33 -21 33 -22 -9 -10 -31 8 -43 4 -40 -14 4 -19 -13 -26
-54 -23 -117 9 -141 8 -235 -2 -85 -10 -95 -7 -95 29 0 45 7 47 57 16 23 -14
59 -17 95 -8 l58 16 -60 22 c-86 33 -150 79 -150 108 0 14 -25 25 -59 25 -58
0 -121 59 -121 114 0 35 33 33 46 -2z m425 -24 c-42 -30 -111 -38 -111 -12 0
17 124 60 140 48 5 -4 -8 -20 -29 -36z m-571 -18 c0 -15 27 -47 60 -70 39 -28
60 -60 60 -92 0 -27 14 -54 30 -61 17 -6 30 -24 30 -40 0 -16 8 -24 19 -18 27
17 121 -31 121 -62 0 -22 8 -22 37 -4 23 14 53 17 75 7 21 -9 46 -17 56 -18
41 -4 31 -50 -20 -90 -53 -41 -101 -46 -95 -10 2 10 -11 31 -29 47 -28 26 -30
26 -19 -4 9 -23 0 -42 -26 -55 -21 -12 -39 -15 -39 -8 0 7 -12 3 -27 -9 -15
-13 -33 -16 -42 -8 -8 8 -20 16 -28 17 -7 1 -29 8 -48 17 -58 25 -39 50 21 29
31 -11 76 -12 100 -3 l43 16 -41 26 c-23 14 -36 16 -29 4 32 -52 -28 -12 -132
88 -74 71 -106 114 -93 127 14 14 8 19 -17 17 -45 -4 -59 73 -28 154 21 55 61
57 61 3z m720 -133 c0 -24 -6 -38 -13 -31 -7 7 -28 4 -47 -6 -50 -27 -66 0
-25 42 48 49 85 47 85 -5z m39 -174 c-15 -5 -40 -21 -55 -36 -39 -39 -264 -9
-264 35 0 23 10 23 98 -4 58 -17 88 -15 143 7 38 16 78 25 88 19 10 -6 6 -16
-10 -21z"/>
<path d="M378 835 c-2 -25 -2 -52 0 -60 1 -8 -8 -15 -19 -15 -12 0 -15 -10 -8
-22 8 -12 21 -14 31 -4 24 24 37 146 15 146 -9 0 -18 -20 -19 -45z"/>
<path d="M1434 824 c-76 -80 -71 -139 16 -175 92 -39 95 -94 5 -85 -57 5 -65
0 -65 -42 0 -75 55 -97 139 -56 137 65 141 206 8 262 l-63 27 58 28 c32 15 61
43 64 62 12 59 -99 45 -162 -21z"/>
<path d="M1731 853 c-50 -36 -27 -94 33 -88 45 5 46 1 39 -150 -5 -128 -1
-157 25 -167 62 -24 90 29 96 179 6 131 10 144 51 149 33 5 45 20 45 55 0 58
-218 74 -289 22z"/>
<path d="M2133 865 c-35 -59 -21 -414 17 -415 30 0 43 17 51 70 l11 70 38 -75
c30 -61 46 -73 79 -63 59 19 59 18 10 105 -41 74 -42 82 -12 125 71 101 16
198 -112 198 -40 0 -77 -7 -82 -15z"/>
<path d="M2491 854 c-5 -13 -12 -108 -17 -210 l-9 -187 82 14 c98 16 88 10 96
59 5 29 -5 42 -38 46 -56 8 -60 64 -5 64 23 0 40 13 40 32 0 17 -18 36 -40 42
-22 6 -40 16 -40 23 1 29 33 59 70 66 22 4 40 20 40 36 0 37 -168 51 -179 15z"/>
<path d="M2785 862 c-10 -7 -19 -101 -19 -209 l-1 -196 72 13 c118 22 160 110
53 110 -64 0 -65 35 0 60 56 21 49 80 -10 80 -26 0 -33 11 -26 40 7 26 27 40
58 40 44 0 57 16 43 54 -6 17 -146 24 -170 8z"/>
<path d="M3408 852 c-6 -16 -1 -47 10 -69 12 -22 22 -76 22 -120 0 -209 147
-306 164 -108 8 101 58 101 67 0 9 -97 24 -120 62 -98 40 22 150 341 135 389
-23 72 -92 -5 -118 -131 -17 -83 -75 -74 -60 10 17 92 -37 170 -66 95 -54
-138 -70 -168 -78 -145 -5 14 -18 20 -28 14 -25 -16 -23 4 6 49 18 31 16 48
-11 90 -37 57 -88 68 -105 24z"/>
<path d="M3968 857 c-22 -36 -24 -386 -2 -400 11 -7 35 -6 52 3 18 10 48 22
67 28 57 17 45 92 -15 92 -65 0 -64 36 2 61 59 22 55 66 -6 75 -61 9 -37 84
26 84 27 0 48 9 48 20 0 11 2 27 5 35 8 22 -163 24 -177 2z"/>
<path d="M4263 701 c-73 -207 -73 -208 -33 -241 29 -24 107 10 81 35 -5 6 -1
27 10 47 22 41 99 13 99 -36 0 -33 30 -48 68 -34 32 12 45 68 16 68 -8 0 -18
29 -20 65 -3 35 -14 73 -25 84 -10 10 -19 35 -19 54 0 196 -103 172 -177 -42z"/>
<path d="M4624 855 c-35 -43 -29 -394 7 -408 43 -17 54 3 68 123 2 11 18 -11
37 -50 28 -56 45 -69 84 -63 69 10 69 9 10 103 -48 77 -50 87 -21 118 38 42
39 119 3 167 -31 41 -157 48 -188 10z"/>
</g>
</svg>
